{
	"asset":{
		"generator":"Khronos glTF Blender I/O v4.2.69",
		"version":"2.0"
	},
	"extensionsUsed":[
		"KHR_lights_punctual",
    "KHR_materials_specular"
	],
	"extensionsRequired":[
		"KHR_lights_punctual"
	],
	"extensions":{
		"KHR_lights_punctual":{
			"lights":[
				{
					"color":[
						1,
						1,
						1
					],
					"intensity":500,
					"type":"point",
					"name":"Light"
				}
			]
		}
	},
	"scene":0,
	"scenes":[
		{
			"name":"Scene",
			"nodes":[
				0,
				1,
				2,
				3,
				4,
				5
			]
		}
	],
	"nodes":[
		{
			"extensions":{
				"KHR_lights_punctual":{
					"light":0
				}
			},
			"name":"Light",
			"rotation":[
				-0.28416627645492554,
				0.7269423007965088,
				0.34203392267227173,
				0.5232754945755005
			],
			"translation":[
				4.076245307922363,
				5.903861999511719,
				-1.0054539442062378
			]
		},
		{
			"camera":0,
			"name":"Camera",
			"rotation":[
				-0.20997299253940582,
				0.3857799470424652,
				0.09062844514846802,
				0.8937962055206299
			],
			"translation":[
				7.358891487121582,
				4.958309173583984,
				6.925790786743164
			]
		},
		{
			"mesh":0,
			"name":"xilofon alja",
			"scale":[
				0.009999990463256836,
				0.009999990463256836,
				0.009999990463256836
			]
		},
		{
			"mesh":1,
			"name":"servo",
			"rotation":[
				0,
				0.30169156193733215,
				0,
				0.9534056186676025
			],
			"scale":[
				0.009999990463256836,
				0.009999990463256836,
				0.009999990463256836
			],
			"translation":[
				0.005031086038798094,
				0.17622576653957367,
				0.07484700530767441
			]
		},
		{
			"mesh":2,
			"name":"\u00fct\u0151",
			"rotation":[
				0.17355655133724213,
				0.29234158992767334,
				-0.05217583850026131,
				0.9389846920967102
			],
			"scale":[
				0.009999990463256836,
				0.009999990463256836,
				0.009999990463256836
			],
			"translation":[
				-0.0106869637966156,
				0.1888987123966217,
				0.09879471361637115
			]
		},
		{
			"mesh":3,
			"name":"Cube",
			"rotation":[
				0,
				0.30169153213500977,
				0,
				0.9534056186676025
			],
			"scale":[
				0.0010000000474974513,
				0.0010000000474974513,
				0.0010000000474974513
			],
			"translation":[
				0.005031085107475519,
				0.17622575163841248,
				0.07484700530767441
			]
		}
	],
	"cameras":[
		{
			"name":"Camera",
			"perspective":{
				"aspectRatio":1.7777777777777777,
				"yfov":0.39959652046304894,
				"zfar":100,
				"znear":0.10000000149011612
			},
			"type":"perspective"
		}
	],
	"animations":[
		{
			"channels":[
				{
					"sampler":0,
					"target":{
						"node":4,
						"path":"translation"
					}
				},
				{
					"sampler":1,
					"target":{
						"node":4,
						"path":"rotation"
					}
				}
			],
			"name":"\u00fct\u0151Action",
			"samplers":[
				{
					"input":18,
					"interpolation":"STEP",
					"output":19
				},
				{
					"input":20,
					"interpolation":"LINEAR",
					"output":21
				}
			]
		}
	],
	"materials":[
		{
			"doubleSided":true,
			"name":"Material.001",
			"pbrMetallicRoughness":{
				"baseColorTexture":{
					"index":0
				},
				"metallicFactor":0.22545453906059265
			}
		},
		{
			"doubleSided":true,
			"name":"Material",
			"pbrMetallicRoughness":{
				"baseColorTexture":{
					"index":1
				},
				"metallicFactor":0,
				"roughnessFactor":0.5
			}
		},
		{
			"doubleSided":true,
			"name":"Material.002",
			"pbrMetallicRoughness":{
				"baseColorTexture":{
					"index":2
				},
				"metallicFactor":0
			}
		}
	],
	"meshes":[
		{
			"name":"xilofon alja",
			"primitives":[
				{
					"attributes":{
						"POSITION":0,
						"NORMAL":1,
						"TEXCOORD_0":2,
						"COLOR_0":3,
						"COLOR_1":4
					},
					"indices":5,
					"material":0
				}
			]
		},
		{
			"name":"servo",
			"primitives":[
				{
					"attributes":{
						"POSITION":6,
						"NORMAL":7,
						"TEXCOORD_0":8
					},
					"indices":9,
					"material":1
				}
			]
		},
		{
			"name":"\u00fct\u0151",
			"primitives":[
				{
					"attributes":{
						"POSITION":10,
						"NORMAL":11,
						"TEXCOORD_0":12
					},
					"indices":13,
					"material":2
				}
			]
		},
		{
			"name":"Cube.001",
			"primitives":[
				{
					"attributes":{
						"POSITION":14,
						"NORMAL":15,
						"TEXCOORD_0":16
					},
					"indices":17,
					"material":2
				}
			]
		}
	],
	"textures":[
		{
			"sampler":0,
			"source":0
		},
		{
			"sampler":0,
			"source":1
		},
		{
			"sampler":0,
			"source":2
		}
	],
	"images":[
		{
			"mimeType":"image/jpeg",
			"name":"robotofon3",
			"uri":"robotofon3.jpg"
		},
		{
			"mimeType":"image/jpeg",
			"name":"servo texture",
			"uri":"servo%20texture.jpg"
		},
		{
			"mimeType":"image/jpeg",
			"name":"gggggggg",
			"uri":"gggggggg.jpg"
		},
		{
			"mimeType":"image/png",
			"name":"genyo texture",
			"uri":"genyo%20texture.png"
		},
		{
			"mimeType":"image/png",
			"name":"robotofon",
			"uri":"robotofon.png"
		},
		{
			"mimeType":"image/png",
			"name":"vegrekeszvanaaaaaaaaaaaaa",
			"uri":"vegrekeszvanaaaaaaaaaaaaa.png"
		}
	],
	"accessors":[
		{
			"bufferView":0,
			"componentType":5126,
			"count":31339,
			"max":[
				12.990131378173828,
				18.3239803314209,
				9.502427101135254
			],
			"min":[
				-12.009868621826172,
				10,
				-7.497572898864746
			],
			"type":"VEC3"
		},
		{
			"bufferView":1,
			"componentType":5126,
			"count":31339,
			"type":"VEC3"
		},
		{
			"bufferView":2,
			"componentType":5126,
			"count":31339,
			"type":"VEC2"
		},
		{
			"bufferView":3,
			"componentType":5121,
			"count":31339,
			"normalized":true,
			"type":"VEC4"
		},
		{
			"bufferView":4,
			"componentType":5126,
			"count":31339,
			"type":"VEC3"
		},
		{
			"bufferView":5,
			"componentType":5123,
			"count":65400,
			"type":"SCALAR"
		},
		{
			"bufferView":6,
			"componentType":5126,
			"count":8809,
			"max":[
				-0.39327046275138855,
				1.8674068450927734,
				2.125840663909912
			],
			"min":[
				-3.383270502090454,
				0.6874065399169922,
				-1.0641593933105469
			],
			"type":"VEC3"
		},
		{
			"bufferView":7,
			"componentType":5126,
			"count":8809,
			"type":"VEC3"
		},
		{
			"bufferView":8,
			"componentType":5126,
			"count":8809,
			"type":"VEC2"
		},
		{
			"bufferView":9,
			"componentType":5123,
			"count":14508,
			"type":"SCALAR"
		},
		{
			"bufferView":10,
			"componentType":5126,
			"count":2663,
			"max":[
				-0.3251512050628662,
				1.4479923248291016,
				1.7854738235473633
			],
			"min":[
				-2.304243326187134,
				-5.471587181091309,
				-11.523284912109375
			],
			"type":"VEC3"
		},
		{
			"bufferView":11,
			"componentType":5126,
			"count":2663,
			"type":"VEC3"
		},
		{
			"bufferView":12,
			"componentType":5126,
			"count":2663,
			"type":"VEC2"
		},
		{
			"bufferView":13,
			"componentType":5123,
			"count":5106,
			"type":"SCALAR"
		},
		{
			"bufferView":14,
			"componentType":5126,
			"count":242,
			"max":[
				4.234771728515625,
				14.847867012023926,
				13.462323188781738
			],
			"min":[
				-21.750633239746094,
				3.4209232330322266,
				-4.538183212280273
			],
			"type":"VEC3"
		},
		{
			"bufferView":15,
			"componentType":5126,
			"count":242,
			"type":"VEC3"
		},
		{
			"bufferView":16,
			"componentType":5126,
			"count":242,
			"type":"VEC2"
		},
		{
			"bufferView":17,
			"componentType":5123,
			"count":504,
			"type":"SCALAR"
		},
		{
			"bufferView":18,
			"componentType":5126,
			"count":2,
			"max":[
				0.4583333333333333
			],
			"min":[
				0.041666666666666664
			],
			"type":"SCALAR"
		},
		{
			"bufferView":19,
			"componentType":5126,
			"count":2,
			"type":"VEC3"
		},
		{
			"bufferView":20,
			"componentType":5126,
			"count":11,
			"max":[
				0.4583333333333333
			],
			"min":[
				0.041666666666666664
			],
			"type":"SCALAR"
		},
		{
			"bufferView":21,
			"componentType":5126,
			"count":11,
			"type":"VEC4"
		}
	],
	"bufferViews":[
		{
			"buffer":0,
			"byteLength":376068,
			"byteOffset":0,
			"target":34962
		},
		{
			"buffer":0,
			"byteLength":376068,
			"byteOffset":376068,
			"target":34962
		},
		{
			"buffer":0,
			"byteLength":250712,
			"byteOffset":752136,
			"target":34962
		},
		{
			"buffer":0,
			"byteLength":125356,
			"byteOffset":1002848,
			"target":34962
		},
		{
			"buffer":0,
			"byteLength":376068,
			"byteOffset":1128204,
			"target":34962
		},
		{
			"buffer":0,
			"byteLength":130800,
			"byteOffset":1504272,
			"target":34963
		},
		{
			"buffer":0,
			"byteLength":105708,
			"byteOffset":1635072,
			"target":34962
		},
		{
			"buffer":0,
			"byteLength":105708,
			"byteOffset":1740780,
			"target":34962
		},
		{
			"buffer":0,
			"byteLength":70472,
			"byteOffset":1846488,
			"target":34962
		},
		{
			"buffer":0,
			"byteLength":29016,
			"byteOffset":1916960,
			"target":34963
		},
		{
			"buffer":0,
			"byteLength":31956,
			"byteOffset":1945976,
			"target":34962
		},
		{
			"buffer":0,
			"byteLength":31956,
			"byteOffset":1977932,
			"target":34962
		},
		{
			"buffer":0,
			"byteLength":21304,
			"byteOffset":2009888,
			"target":34962
		},
		{
			"buffer":0,
			"byteLength":10212,
			"byteOffset":2031192,
			"target":34963
		},
		{
			"buffer":0,
			"byteLength":2904,
			"byteOffset":2041404,
			"target":34962
		},
		{
			"buffer":0,
			"byteLength":2904,
			"byteOffset":2044308,
			"target":34962
		},
		{
			"buffer":0,
			"byteLength":1936,
			"byteOffset":2047212,
			"target":34962
		},
		{
			"buffer":0,
			"byteLength":1008,
			"byteOffset":2049148,
			"target":34963
		},
		{
			"buffer":0,
			"byteLength":8,
			"byteOffset":2050156
		},
		{
			"buffer":0,
			"byteLength":24,
			"byteOffset":2050164
		},
		{
			"buffer":0,
			"byteLength":44,
			"byteOffset":2050188
		},
		{
			"buffer":0,
			"byteLength":176,
			"byteOffset":2050232
		}
	],
	"samplers":[
		{
			"magFilter":9729,
			"minFilter":9987
		}
	],
	"buffers":[
		{
			"byteLength":2050408,
			"uri":"xilofon.bin"
		}
	]
}
